<svg xmlns="http://www.w3.org/2000/svg" width="44" height="44" viewBox="0 0 44 44">
    <g fill="none" fill-rule="evenodd">
        
        <g transform="translate(-292 -328) translate(0 219)">
            
            <g>
                <path d="M0 0H44V44H0z" transform="translate(292 109)"/>
                <g fill="#555" fill-rule="nonzero">
                    <path d="M26.968 8.68v-.031c-.015-.798-.03-1.552-.03-2.277 0-1.098-.887-1.991-1.978-1.991-4.22 0-7.424-1.212-10.081-3.813-.774-.757-1.985-.757-2.759 0C9.463 3.169 6.26 4.38 2.04 4.38.95 4.38.062 5.274.062 6.372c0 .74-.015 1.502-.03 2.308-.071 3.762-.16 8.444 1.4 12.694.859 2.337 2.158 4.368 3.862 6.036 1.942 1.9 4.484 3.408 7.557 4.48.21.073.427.11.648.11.222 0 .44-.037.648-.11 3.074-1.072 5.617-2.58 7.558-4.48 1.705-1.669 3.004-3.7 3.863-6.036 1.56-4.25 1.471-8.933 1.4-12.695zm-3.147 12.043c-1.646 4.482-5.01 7.555-10.284 9.396-.024.008-.05.008-.076 0-5.273-1.84-8.636-4.914-10.282-9.395-1.439-3.918-1.357-8.216-1.285-12.008.015-.815.03-1.585.03-2.344 0-.064.052-.117.116-.117 4.736 0 8.352-1.38 11.378-4.343.023-.022.052-.033.081-.033.03 0 .059.01.081.033 3.027 2.963 6.643 4.343 11.38 4.343.064 0 .116.053.116.117 0 .743.014 1.505.03 2.312v.03c.072 3.793.154 8.091-1.285 12.01z" transform="translate(292 109) translate(9 6)"/>
                    <path d="M19.099 14.093h-2.9V10.97c0-.536-.403-.97-.9-.97h-3.597c-.498 0-.901.434-.901.97v3.123h-2.9c-.498 0-.901.435-.901.97v3.873c0 .536.403.97.901.97h2.9v3.124c0 .536.403.97.901.97h3.596c.498 0 .901-.434.901-.97v-3.123h2.9c.498 0 .901-.435.901-.97v-3.873c0-.536-.404-.97-.901-.97zm-.901 3.873h-2.9c-.497 0-.9.435-.9.97v3.123h-1.795v-3.123c0-.535-.403-.97-.9-.97h-2.9v-1.932h2.9c.497 0 .9-.435.9-.97V11.94h1.794v3.123c0 .535.404.97.901.97h2.9v1.932z" transform="translate(292 109) translate(9 6)"/>
                </g>
                <path fill="#40BAD5" d="M24.4 19.3c.276 0 .5.224.5.5v3h2c.276 0 .5.224.5.5v2c0 .276-.224.5-.5.5h-2.001l.001 2c0 .276-.224.5-.5.5h-2c-.276 0-.5-.224-.5-.5l-.001-2H18.9c-.276 0-.5-.224-.5-.5v-2c0-.276.224-.5.5-.5h3v-3c0-.276.224-.5.5-.5h2z" opacity=".3" transform="translate(292 109)"/>
            </g>
        </g>
    </g>
</svg>
