<svg xmlns="http://www.w3.org/2000/svg" xmlns:xlink="http://www.w3.org/1999/xlink" width="44" height="44" viewBox="0 0 44 44">
    <defs>
        <path id="prefix__a" d="M0 0.031L30.271 0.031 30.271 30.301 0 30.301z"/>
    </defs>
    <g fill="none" fill-rule="evenodd">
        
        <g transform="translate(-292 -243) translate(0 219)">
            
            <g>
                <path d="M0 0H44V44H0z" transform="translate(292 24)"/>
                <g transform="translate(292 24) translate(7.333 6.667)">
                    <g transform="translate(0 .334)">
                        <mask id="prefix__b" fill="#fff">
                            <use xlink:href="#prefix__a"/>
                        </mask>
                        <path fill="#555" d="M15.135 5.171c-5.51 0-9.995 4.484-9.995 9.995 0 5.512 4.484 9.995 9.995 9.995 5.512 0 9.995-4.483 9.995-9.995 0-5.51-4.483-9.995-9.995-9.995m2.846 25.13c-.335 0-.629-.226-.715-.549-.106-.395.129-.802.524-.908l.227-.06-.633-2.361-.14.026c-.694.13-1.403.195-2.11.195-.704 0-1.414-.066-2.107-.195l-.14-.026-.634 2.36.228.061c.394.106.63.513.524.908-.087.323-.381.55-.715.55-.065 0-.13-.009-.193-.026l-1.885-.505c-.191-.051-.351-.174-.45-.345-.1-.172-.126-.372-.074-.563.086-.324.38-.55.713-.55.065 0 .13.009.194.026l.228.06.632-2.36-.135-.048c-1.338-.473-2.565-1.184-3.647-2.112l-.11-.093-1.732 1.733.167.165c.14.14.216.327.216.525s-.076.384-.217.523c-.14.14-.326.218-.524.218s-.384-.077-.524-.218l-1.38-1.38c-.29-.289-.29-.759 0-1.048.14-.14.326-.217.524-.217s.384.077.524.217l.166.167 1.733-1.733-.093-.11c-.928-1.081-1.64-2.308-2.112-3.646l-.048-.135-2.361.632.06.227c.106.395-.13.802-.524.908-.063.017-.128.026-.192.026-.334 0-.628-.226-.715-.55l-.506-1.885c-.05-.192-.024-.391.075-.563.098-.172.258-.294.45-.345.062-.017.126-.026.19-.026.336 0 .63.226.717.55l.061.227 2.36-.633-.025-.141c-.13-.693-.195-1.402-.195-2.108 0-.705.065-1.415.195-2.108l.026-.14-2.36-.633-.062.226c-.087.324-.382.55-.717.55-.064 0-.128-.008-.19-.025-.395-.106-.63-.513-.525-.908l.506-1.886c.087-.323.38-.55.715-.55.065 0 .13.01.193.026.394.106.63.513.524.908l-.062.227 2.362.633.048-.135c.472-1.337 1.183-2.564 2.112-3.647l.093-.109-1.733-1.733-.166.167c-.14.14-.326.216-.524.216s-.384-.077-.524-.217-.217-.326-.217-.524.077-.384.217-.523L4.949 3.6c.14-.14.326-.217.524-.217s.385.077.525.217.217.326.217.524-.077.384-.217.524l-.166.167 1.732 1.732.11-.093c1.08-.929 2.308-1.64 3.646-2.113l.135-.047-.632-2.361-.228.06c-.063.018-.13.026-.194.026-.333 0-.627-.226-.713-.55-.106-.394.13-.801.524-.907l1.885-.506c.064-.016.128-.025.193-.025.334 0 .629.226.715.55.051.191.025.39-.074.562-.099.172-.259.294-.45.345l-.227.06.633 2.362.14-.026c.693-.13 1.403-.195 2.108-.195.706 0 1.415.065 2.108.195l.14.026.634-2.361-.228-.06c-.19-.052-.35-.174-.45-.346-.098-.171-.125-.371-.073-.562.086-.324.38-.55.715-.55.064 0 .129.009.192.025l1.886.506c.394.106.63.513.524.908-.086.323-.38.55-.713.55-.065 0-.13-.01-.195-.026l-.227-.062-.632 2.362.135.048c1.338.473 2.565 1.183 3.647 2.111l.108.094 1.734-1.733-.167-.166c-.289-.289-.289-.759 0-1.048.14-.14.326-.217.525-.217.197 0 .384.077.523.217l1.38 1.38c.14.14.218.327.218.525 0 .197-.077.384-.217.523-.14.14-.326.218-.524.218s-.385-.078-.524-.218l-.167-.165-1.732 1.732.093.109c.929 1.082 1.64 2.31 2.112 3.647l.047.135 2.362-.633-.061-.228c-.105-.394.13-.8.524-.906.064-.018.129-.026.193-.026.334 0 .628.226.715.55l.505 1.885c.051.191.025.39-.074.562-.099.172-.258.294-.45.346-.062.016-.126.025-.19.025-.336 0-.631-.226-.718-.55l-.06-.227-2.361.633.026.141c.13.693.194 1.402.194 2.108 0 .707-.065 1.416-.194 2.108l-.026.14 2.36.634.062-.228c.086-.323.38-.549.716-.549.065 0 .129.009.191.026.192.051.351.173.45.345.099.172.125.371.074.562l-.505 1.886c-.087.324-.381.55-.715.55-.065 0-.13-.01-.193-.026-.394-.106-.63-.513-.524-.908l.06-.227-2.36-.632-.048.135c-.473 1.337-1.184 2.564-2.112 3.647l-.094.109 1.734 1.733.166-.167c.14-.14.325-.217.524-.217.197 0 .384.077.524.217.289.29.289.76 0 1.048l-1.38 1.38c-.14.14-.327.218-.525.218s-.384-.077-.524-.218c-.14-.14-.217-.325-.217-.523s.077-.385.217-.525l.166-.165-1.733-1.733-.108.093c-1.082.928-2.31 1.639-3.648 2.112l-.134.047.632 2.362.227-.061c.064-.017.13-.026.195-.026.333 0 .626.226.713.55.051.191.025.391-.074.563-.1.17-.259.294-.45.345l-1.886.505c-.063.017-.128.025-.192.025" mask="url(#prefix__b)"/>
                    </g>
                    <circle cx="15" cy="16" r="8" fill="#40BAD5" opacity=".3"/>
                    <path fill="#555" d="M15.135 9.524c-.408 0-.74-.333-.74-.741 0-.409.332-.741.74-.741.409 0 .741.332.741.74 0 .41-.332.742-.74.742M15.135 22.959c-.408 0-.74-.333-.74-.741 0-.409.332-.741.74-.741.409 0 .741.332.741.74 0 .41-.332.742-.74.742M13.216 18.16c-.409 0-.741-.332-.741-.74 0-.409.332-.741.741-.741s.741.332.741.74c0 .41-.332.742-.74.742M17.055 18.16c-.409 0-.741-.332-.741-.74 0-.409.332-.741.74-.741.41 0 .742.332.742.74 0 .41-.333.742-.741.742M17.055 14.322c-.409 0-.741-.333-.741-.741 0-.409.332-.741.74-.741.41 0 .742.332.742.741 0 .408-.333.741-.741.741M13.216 14.322c-.409 0-.741-.333-.741-.741 0-.409.332-.741.741-.741s.741.332.741.741c0 .408-.332.741-.74.741M21.853 16.241c-.409 0-.741-.332-.741-.74 0-.41.332-.742.74-.742.41 0 .742.333.742.741 0 .409-.333.741-.741.741M8.418 16.241c-.409 0-.741-.332-.741-.74 0-.41.332-.742.741-.742s.741.333.741.741c0 .409-.332.741-.74.741M19.885 11.492c-.408 0-.74-.333-.74-.741 0-.409.332-.742.74-.742.409 0 .741.333.741.742 0 .408-.332.741-.74.741M10.386 20.992c-.41 0-.741-.333-.741-.742 0-.408.332-.74.74-.74.41 0 .741.332.741.74 0 .409-.332.742-.74.742M19.885 20.992c-.408 0-.74-.333-.74-.742 0-.408.332-.74.74-.74.409 0 .741.332.741.74 0 .409-.332.742-.74.742M10.386 11.492c-.41 0-.741-.333-.741-.741 0-.409.332-.742.74-.742.41 0 .741.333.741.742 0 .408-.332.741-.74.741"/>
                </g>
            </g>
        </g>
    </g>
</svg>
