<svg xmlns="http://www.w3.org/2000/svg" xmlns:xlink="http://www.w3.org/1999/xlink" width="44" height="44" viewBox="0 0 44 44">
    <defs>
        <path id="prefix__a" d="M0 0L22 0 22 26 0 26z"/>
    </defs>
    <g fill="none" fill-rule="evenodd">
   
        <g transform="translate(-91 -328) translate(0 219)">
         
            <g>
                <path d="M0 0H44V44H0z" transform="translate(91 109)"/>
                <g transform="translate(91 109) translate(11 9)">
                    <mask id="prefix__b" fill="#fff">
                        <use xlink:href="#prefix__a"/>
                    </mask>
                    <path fill="#555" d="M20.232 24.256H1.768v-3.98c0-2.156 1.884-3.978 4.114-3.978H16.118c2.23 0 4.114 1.822 4.114 3.979v3.979zM6.161 4.716l-.086.112-.17.023h-.023c-.868 0-1.575-.697-1.575-1.553 0-.857.707-1.554 1.575-1.554s1.574.697 1.574 1.557v.17l-.138.102c-.438.325-.827.71-1.157 1.142zm4.637-.546c1.341 0 2.592.658 3.345 1.76l.24.35-7.617 3.006V8.149c0-2.194 1.808-3.979 4.032-3.979zm4.032 6.405c0 2.194-1.809 3.978-4.032 3.978-1.876 0-3.532-1.311-3.936-3.119l-.064-.282 8.032-3.17v2.593zm5.423 5.648c-1.067-1.03-2.46-1.611-3.936-1.66h-.393l.004-.01h-.91l.417-.545c.76-.998 1.163-2.185 1.163-3.433V8.149c0-3.156-2.602-5.723-5.8-5.723-.437 0-.878.05-1.31.149l-.314.071-.094-.304C8.656.963 7.34 0 5.882 0 4.039 0 2.54 1.48 2.54 3.298c0 1.44.975 2.737 2.373 3.156l.309.092-.073.31c-.1.427-.151.862-.151 1.293v2.426c0 1.248.402 2.435 1.163 3.433l.412.545h-.691c-.622 0-1.23.1-1.807.284l-.025.009c-.163.052-.322.11-.479.175-.024.01-.047.022-.071.033-.14.061-.28.125-.415.198-.045.024-.088.052-.133.077-.113.064-.226.128-.335.2-.075.048-.145.104-.217.156-.077.055-.156.108-.23.167-.146.116-.287.24-.423.37C.62 17.31 0 18.75 0 20.278v4.851c0 .48.396.872.884.872h20.232c.488 0 .884-.391.884-.872v-4.851c0-1.528-.62-2.968-1.747-4.054z" mask="url(#prefix__b)"/>
                    <path fill="#40BAD5" d="M8.591 17C5.508 17 3 19.543 3 22.67V25h18v-2.33c0-3.127-2.508-5.67-5.592-5.67H8.591z" mask="url(#prefix__b)" opacity=".3"/>
                </g>
            </g>
        </g>
    </g>
</svg>
