<svg xmlns="http://www.w3.org/2000/svg" width="44" height="44" viewBox="0 0 44 44">
    <g fill="none" fill-rule="evenodd">
       
        <g transform="translate(-158 -328) translate(0 219)">
            
            <g>
                <path d="M0 0H44V44H0z" transform="translate(158 109)"/>
                <path fill="#555" d="M7.684 9.708c-.839 0-1.521.683-1.521 1.522 0 .838.682 1.52 1.52 1.52h.024l.164-.022.083-.11c.319-.425.695-.8 1.118-1.119l.133-.1v-.166c0-.842-.683-1.525-1.521-1.525zm17.704 2.82c.55 1.554 2.027 2.598 3.674 2.598h6.206l-.158-.445c-.414-1.166-1.367-2.075-2.548-2.431-.503-.152-.641-.172-2.553-.172l-1.346.002c-.782.002-1.752.004-2.96.004h-.473l.158.444zm-12.954-.444c-2.148 0-3.896 1.748-3.896 3.896v1.114l7.36-2.944-.231-.343c-.727-1.079-1.936-1.723-3.233-1.723zM8.57 18.92l.06.276c.392 1.77 1.992 3.055 3.804 3.055 2.149 0 3.897-1.748 3.897-3.897v-2.539L8.57 18.921zm18.97-.566c0 2.149 1.748 3.897 3.897 3.897s3.896-1.748 3.896-3.897v-1.52h-6.271c-.377 0-.755-.039-1.121-.114l-.4-.081v1.715zm-5.604 3.23c-1.494 0-2.709 1.215-2.709 2.709 0 1.493 1.215 2.708 2.709 2.708 1.493 0 2.708-1.215 2.708-2.708 0-1.494-1.215-2.71-2.708-2.71zM7.684 23.96c-2.155 0-3.975 1.785-3.975 3.896v3.897h10.305l.054-.267c.415-2.035 1.978-3.714 3.982-4.275l.439-.123-.25-.381c-.471-.72-.72-1.554-.72-2.413v-.334H7.683zm18.669.334c0 .859-.25 1.693-.72 2.413l-.25.38.438.124c2.004.561 3.567 2.24 3.982 4.275l.054.267h10.306v-3.897c0-2.111-1.82-3.896-3.976-3.896h-9.834v.334zM19.56 28.71c-2.148 0-3.896 1.747-3.896 3.896v1.6h12.544v-1.6c0-2.149-1.748-3.896-3.897-3.896h-4.75zm-4.75 7.205c-.471 0-.855-.383-.855-.854v-1.6H2.854c-.471 0-.854-.384-.854-.855v-4.75c0-1.497.6-2.907 1.688-3.97 1.078-1.055 2.498-1.635 3.996-1.635h.668l-.398-.534c-.736-.977-1.124-2.14-1.124-3.363V15.98c0-.422.049-.848.146-1.266l.07-.303-.298-.091c-1.35-.41-2.293-1.68-2.293-3.09C4.455 9.449 5.903 8 7.684 8c1.41 0 2.68.943 3.09 2.293l.09.299.305-.07c.418-.097.843-.147 1.265-.147 3.091 0 5.605 2.515 5.605 5.605v2.375c0 1.223-.388 2.386-1.124 3.363l-.401.534h1.502l.097-.167c.79-1.362 2.255-2.209 3.823-2.209 1.567 0 3.032.847 3.822 2.21l.097.166h1.503l-.402-.534c-.735-.978-1.124-2.14-1.124-3.363v-2.541l-.133-.104c-1.425-1.072-2.242-2.705-2.242-4.48 0-.472.383-.855.854-.855h7.126c3.09 0 5.605 2.515 5.605 5.605v2.375c0 1.223-.39 2.386-1.124 3.363l-.402.534h.668c1.502 0 2.921.58 3.999 1.635 1.089 1.063 1.688 2.473 1.688 3.97v4.75c0 .471-.383.854-.854.854H29.916v1.6c0 .472-.383.855-.854.855H14.81z" transform="translate(158 109)"/>
                <path fill="#40BAD5" d="M22.936 22.585c-1.494 0-2.709 1.215-2.709 2.709 0 1.493 1.215 2.708 2.709 2.708 1.493 0 2.708-1.215 2.708-2.708 0-1.494-1.215-2.71-2.708-2.71zM20.56 29.71c-2.148 0-3.896 1.748-3.896 3.897v1.6h12.544v-1.6c0-2.149-1.748-3.896-3.897-3.896h-4.75z" opacity=".3" transform="translate(158 109)"/>
            </g>
        </g>
    </g>
</svg>
