<svg xmlns="http://www.w3.org/2000/svg" width="44" height="44" viewBox="0 0 44 44">
    <g fill="none" fill-rule="evenodd">
       
        <g transform="translate(-24 -413) translate(0 219)">
          
            <g>
                <path d="M0 0H44V44H0z" transform="translate(24 194)"/>
                <g>
                    <path fill="#555" d="M21.6 19.939l-1.576 4.726c-.143.431-.546.72-1 .72-5.5 0-8.465-3.05-9.893-3.802l-.838 1.59c.81.427 2.843 2.28 6.086 3.304v2.392H5.392v-8.255c-.12-.168-3.496-2.783-3.592-7.827C1.911 7.289 5.847 2.632 11.043 1.9 18.067.913 25.069 7.188 21.963 13.4l-.583 1.166 1.865 3.729-1.645 1.645zm1.97-5.736C27.352 6.64 19.222-1.065 10.792.122 4.782.967.217 6.279.009 12.574H0v.451h.009c.112 3.22 1.44 6.165 3.586 8.349v9.293h12.58v-3.742c.877.162 1.825.258 2.849.258 1.23 0 2.317-.784 2.705-1.95l1.441-4.323 2.262-2.261-2.042-4.084.18-.362z" transform="translate(24 194) translate(9.333 6.667)"/>
                    <path fill="#555" d="M17.074 9.878h-.005c-1.982 0-3.594 1.613-3.594 3.595 0 1.982 1.612 3.594 3.594 3.594h.005v.899H8.088V8.979h3.221l-.423-1.198c-.068-.192-.102-.393-.102-.6 0-.99.806-1.797 1.797-1.797.991 0 1.798.807 1.798 1.798 0 .206-.035.408-.103.6l-.423 1.197h3.221v.899zm-4.493-6.29c-1.982 0-3.594 1.612-3.594 3.594H6.29v12.581h12.58V14.74c-1.077.358-1.3.53-1.802.53-.99 0-1.797-.806-1.797-1.797 0-.992.806-1.798 1.797-1.798.5 0 .722.171 1.803.53V7.182h-2.696c0-1.982-1.613-3.595-3.595-3.595z" transform="translate(24 194) translate(9.333 6.667)"/>
                    <path fill="#40BAD5" d="M18.074 10.878h-.005c-1.982 0-3.594 1.613-3.594 3.595 0 1.982 1.612 3.594 3.594 3.594h.005v.899H9.088V9.979h3.221l-.423-1.198c-.068-.192-.102-.393-.102-.6 0-.99.806-1.797 1.797-1.797.991 0 1.798.807 1.798 1.798 0 .206-.035.408-.103.6l-.423 1.197h3.221v.899z" opacity=".3" transform="translate(24 194) translate(9.333 6.667)"/>
                </g>
            </g>
        </g>
    </g>
</svg>
