<svg xmlns="http://www.w3.org/2000/svg" width="44" height="44" viewBox="0 0 44 44">
    <g fill="none" fill-rule="evenodd">
      
        <g transform="translate(-158 -413) translate(0 219)">
            
            <g>
                <path d="M0 0H44V44H0z" transform="translate(158 194)"/>
                <path fill="#555" d="M21.993 24.486c.761 0 1.479.37 1.92.99.608.857.998 2.025 1.157 3.47.19 1.722.526 3.354.946 4.595.494 1.464.955 1.907 1.09 1.955.64-.085 1.81-1.963 2.437-6.83.109-.843.242-1.64.395-2.366.377-1.785 1.14-3.459 2.268-4.976 1.886-2.537 2.477-5.719 1.58-8.511-.636-1.984-1.953-3.427-3.612-3.96-1.752-.561-3.558-.525-5.37.107-1.383.484-2.25 1.153-2.259 1.16l-.553.43-.553-.433c-.006-.004-.874-.673-2.257-1.157-1.811-.632-3.618-.668-5.37-.106-1.66.532-2.976 1.975-3.613 3.96-.896 2.794-.304 5.976 1.584 8.514 1.126 1.513 1.888 3.186 2.265 4.972.154.727.287 1.523.396 2.366.627 4.867 1.796 6.745 2.437 6.83.135-.048.595-.49 1.09-1.955.42-1.241.755-2.873.945-4.594.16-1.446.55-2.614 1.158-3.47.44-.62 1.158-.991 1.92-.991m5.095 12.801c-1.069 0-1.962-.96-2.657-2.855-.514-1.402-.919-3.28-1.14-5.29-.125-1.122-.414-2.032-.839-2.63-.152-.213-.372-.236-.46-.236-.087 0-.308.023-.46.237-.424.597-.714 1.507-.838 2.63-.221 2.009-.626 3.887-1.14 5.289-.695 1.896-1.588 2.855-2.657 2.855-.061 0-.122-.003-.184-.01-1.086-.108-1.993-1.01-2.696-2.679-.587-1.394-1.041-3.313-1.35-5.703-.102-.796-.227-1.545-.37-2.226-.324-1.531-.98-2.969-1.95-4.273-2.233-3-2.925-6.786-1.853-10.129.815-2.542 2.554-4.407 4.77-5.118 4.086-1.31 7.446.375 8.728 1.181 1.283-.806 4.642-2.49 8.727-1.18 2.217.71 3.955 2.575 4.771 5.115 1.072 3.342.381 7.127-1.849 10.127-.972 1.308-1.63 2.747-1.953 4.278-.144.68-.268 1.429-.371 2.225-.308 2.39-.762 4.31-1.349 5.703-.703 1.67-1.61 2.571-2.696 2.68-.062.006-.123.01-.184.01" transform="translate(158 194)"/>
                <path fill="#40BAD5" d="M21.993 23.86c.637 0 1.236.309 1.605.827.509.717.835 1.693.968 2.902.159 1.44.44 2.804.79 3.841.414 1.225.8 1.595.912 1.635.536-.071 1.513-1.642 2.038-5.71.09-.706.202-1.372.33-1.979.315-1.492.953-2.892 1.896-4.16 1.577-2.122 2.072-4.782 1.322-7.117-.532-1.659-1.633-2.865-3.02-3.31-1.465-.47-2.976-.44-4.49.09-1.157.403-1.882.962-1.89.968l-.462.36-.462-.362c-.005-.004-.731-.563-1.888-.967-1.514-.529-3.024-.559-4.489-.09-1.388.446-2.489 1.653-3.021 3.312-.75 2.336-.254 4.997 1.324 7.118.942 1.266 1.579 2.664 1.894 4.158.129.607.24 1.273.33 1.978.525 4.07 1.503 5.64 2.039 5.71.112-.04.497-.41.911-1.634.351-1.037.632-2.402.79-3.841.134-1.209.46-2.185.969-2.902.368-.518.968-.828 1.604-.828" opacity=".3" transform="translate(158 194)"/>
            </g>
        </g>
    </g>
</svg>
