<svg xmlns="http://www.w3.org/2000/svg" width="44" height="44" viewBox="0 0 44 44">
    <g fill="none" fill-rule="evenodd">
     
        <g transform="translate(-91 -413) translate(0 219)">
            
            <g>
                <path d="M0 0H44V44H0z" transform="translate(91 194)"/>
                <path fill="#555" d="M37.354 26.918h-.81c-.253-2.333-2.357-4.016-4.69-3.756-1.982.214-3.543 1.782-3.757 3.756h-12.63c-.253-2.333-2.356-4.016-4.69-3.756-1.981.214-3.542 1.782-3.756 3.756h-.383c-1.002 0-1.782-.834-1.782-1.836v-2.18c-.008-.819.535-1.53 1.323-1.752l5.96-1.63c.16-.046.306-.138.405-.275l3.565-4.675c.513-.657 1.3-1.04 2.135-1.04H29.52c.918-.008 1.783.459 2.265 1.24l2.77 4.421c.076.13.198.23.328.29l3.198 1.462c.643.298 1.056.941 1.048 1.653v2.486h.008c0 1.002-.78 1.836-1.783 1.836m-5.034 3.167c-1.5 0-2.715-1.216-2.715-2.716 0-1.5 1.216-2.716 2.715-2.716 1.5 0 2.716 1.217 2.716 2.716.008 1.492-1.209 2.709-2.716 2.716m-21.076 0c-1.5 0-2.716-1.216-2.716-2.716 0-1.5 1.216-2.716 2.716-2.716 1.5 0 2.716 1.217 2.716 2.716.007 1.492-1.21 2.709-2.716 2.716m27.48-10.534l-3-1.37-2.646-4.223c-.766-1.224-2.112-1.966-3.558-1.958H18.244c-1.309 0-2.548.604-3.343 1.645l-3.42 4.475-5.7 1.56c-1.446.398-2.448 1.722-2.448 3.222v2.18c0 1.844 1.47 3.366 3.313 3.366h.49c.589 2.272 2.907 3.634 5.179 3.045 1.491-.39 2.662-1.553 3.044-3.045h12.853c.589 2.272 2.907 3.634 5.18 3.045 1.491-.39 2.662-1.553 3.044-3.045h.918c1.844 0 3.313-1.522 3.313-3.366v-2.486c.007-1.308-.758-2.502-1.943-3.045" transform="translate(91 194)"/>
                <path fill="#40BAD5" d="M33.32 31.085c-1.5 0-2.715-1.216-2.715-2.716 0-1.5 1.216-2.716 2.715-2.716 1.5 0 2.716 1.217 2.716 2.716.008 1.492-1.209 2.709-2.716 2.716M12.244 31.085c-1.5 0-2.716-1.216-2.716-2.716 0-1.5 1.216-2.716 2.716-2.716 1.5 0 2.716 1.217 2.716 2.716.007 1.492-1.21 2.709-2.716 2.716" opacity=".3" transform="translate(91 194)"/>
            </g>
        </g>
    </g>
</svg>
