<svg xmlns="http://www.w3.org/2000/svg" width="44" height="44" viewBox="0 0 44 44">
    <g fill="none" fill-rule="evenodd">
       
        <g transform="translate(-225 -328) translate(0 219)">
          
            <g>
                <path d="M0 0H44V44H0z" transform="translate(225 109)"/>
                <path fill="#555" d="M7.343 23.867c-.44 0-.838-.245-1.037-.637-1.056-2.086-1.59-4.196-1.59-6.271 0-2.244.741-4.662 1.985-6.467 1.201-1.745 3.477-3.825 7.496-3.825 3.928 0 6.596 1.899 8.141 3.492l.178.185.18-.185c1.545-1.593 4.212-3.492 8.14-3.492 4.019 0 6.294 2.08 7.496 3.825 1.243 1.805 1.985 4.223 1.985 6.467 0 .64-.52 1.16-1.16 1.16-.64 0-1.161-.52-1.161-1.16 0-2.217-1.287-7.97-7.16-7.97-2.006 0-3.84.63-5.447 1.872-1.226.946-1.866 1.92-1.892 1.961-.214.347-.58.553-.982.553-.4 0-.766-.208-.98-.556-.07-.105-.702-1.04-1.891-1.958-1.607-1.242-3.44-1.872-5.447-1.872-5.873 0-7.16 5.753-7.16 7.97 0 1.707.451 3.464 1.34 5.222.141.277.165.591.068.885-.096.295-.302.535-.579.675-.165.083-.34.126-.523.126zm31.763 7.402c-.23 0-.454-.068-.646-.197l-4.302-2.891c-.32-.216-.513-.576-.513-.964V20.55h-3.318v2.725c0 .437-.242.833-.63 1.032-.164.085-.347.129-.531.129-.244 0-.478-.075-.676-.217l-6.03-4.321L6.492 31.06c-.196.137-.425.21-.664.21-.38 0-.736-.186-.953-.496-.177-.254-.245-.563-.191-.868.054-.306.224-.572.477-.75l16.64-11.633c.197-.137.426-.21.665-.21.245 0 .478.075.677.218l4.86 3.482v-1.625c0-.64.522-1.161 1.162-1.161h5.64c.64 0 1.162.521 1.162 1.161v7.21l3.788 2.547c.256.172.43.435.49.74s-.002.614-.175.871c-.216.322-.576.513-.965.513zm-16.59 6.064c-.175 0-.349-.04-.506-.116-.172-.083-4.275-2.088-8.456-5.504-.496-.406-.57-1.139-.164-1.634.22-.271.55-.427.9-.427.266 0 .526.093.733.262 3.066 2.506 6.178 4.255 7.374 4.89l.117.063.117-.063c1.19-.637 4.289-2.39 7.352-4.89.207-.168.467-.261.733-.261.35 0 .68.156.9.427.197.24.288.543.257.851-.032.31-.182.587-.422.783-4.19 3.418-8.253 5.418-8.424 5.501-.158.078-.334.118-.51.118z" transform="translate(225 109)"/>
                <path fill="#40BAD5" d="M20.646 30.57c-.65 0-1.178-.528-1.178-1.178V25.75c0-.651.527-1.179 1.178-1.179h3.642c.65 0 1.18.528 1.18 1.179v3.643c0 .65-.53 1.178-1.18 1.178h-3.642z" opacity=".3" transform="translate(225 109)"/>
            </g>
        </g>
    </g>
</svg>
