<svg xmlns="http://www.w3.org/2000/svg" width="44" height="44" viewBox="0 0 44 44">
    <g fill="none" fill-rule="evenodd">
        
        <g transform="translate(-91 -243) translate(0 219)">
            
            <g>
                <path d="M0 0H44V44H0z" transform="translate(91 24)"/>
                <text fill="#555" font-family="NIXGONB-Vb, NIXGONFONTS V2.0" font-size="14" letter-spacing="-.583" transform="translate(91 24)">
                    <tspan x="34.217" y="40">4</tspan>
                </text>
                <g>
                    <path fill="#555" d="M21.76 9.988c-2.222 0-4.031-1.778-4.031-3.963s1.809-3.963 4.032-3.963 4.033 1.778 4.033 3.963-1.81 3.963-4.033 3.963m6.13-3.963c0-3.322-2.75-6.025-6.13-6.025s-6.13 2.703-6.13 6.025c0 2.97 2.199 5.446 5.081 5.936V24.67c0 3.64-3.014 6.602-6.718 6.602S7.276 28.31 7.276 24.67V20.04c2.936-.491 5.178-3.01 5.178-6.032V0H8.108v2.062h2.248v11.947c0 2.237-1.852 4.057-4.13 4.057-2.276 0-4.128-1.82-4.128-4.057V2.062h2.248V0H0v14.009c0 3.023 2.242 5.54 5.178 6.032v4.628c0 4.778 3.955 8.664 8.816 8.664 4.861 0 8.816-3.886 8.816-8.664V11.96c2.882-.49 5.081-2.966 5.081-5.936" transform="translate(91 24) translate(8 5.333)"/>
                    <path fill="#40BAD5" d="M21.81 4.082c-1.103 0-2 .897-2 2 0 1.102.897 2 2 2 1.102 0 2-.898 2-2 0-1.103-.898-2-2-2" opacity=".3" transform="translate(91 24) translate(8 5.333)"/>
                </g>
            </g>
        </g>
    </g>
</svg>
