<svg xmlns="http://www.w3.org/2000/svg" width="44" height="44" viewBox="0 0 44 44">
    <g fill="none" fill-rule="evenodd">
        <g transform="translate(-241 -1266) translate(0 539)">
            <g>             
                <path fill="#555" d="M29.76 15.321c-2.222 0-4.031-1.778-4.031-3.963s1.809-3.963 4.032-3.963 4.033 1.778 4.033 3.963-1.81 3.963-4.033 3.963m6.13-3.963c0-3.322-2.75-6.025-6.13-6.025s-6.13 2.703-6.13 6.025c0 2.97 2.199 5.446 5.081 5.937v12.707c0 3.641-3.014 6.603-6.718 6.603s-6.718-2.962-6.718-6.603v-4.627c2.936-.492 5.178-3.01 5.178-6.033V5.333h-4.346v2.062h2.248v11.947c0 2.237-1.852 4.058-4.13 4.058-2.276 0-4.128-1.82-4.128-4.058V7.395h2.248V5.333H8v14.009c0 3.023 2.242 5.541 5.178 6.033v4.627c0 4.778 3.955 8.665 8.816 8.665 4.861 0 8.816-3.887 8.816-8.665V17.295c2.882-.491 5.081-2.966 5.081-5.937" transform="translate(241 727)"/>
            </g>
        </g>
    </g>
</svg>
