<svg xmlns="http://www.w3.org/2000/svg" width="44" height="44" viewBox="0 0 44 44">
    <g fill="none" fill-rule="evenodd">
        
        <g transform="translate(-24 -328) translate(0 219)">
            
            <g transform="translate(24 109)">
                <path d="M0 0H44V44H0z"/>
                <path fill="#555" d="M27.585 35.103c-4.148 0-7.523-3.375-7.523-7.523s3.375-7.524 7.523-7.524 7.523 3.376 7.523 7.524-3.375 7.523-7.523 7.523zM11.503 23.945h7.437c-.357.847-.593 1.756-.687 2.707h-6.75v-2.707zm15.63-7.598l-.33 1.887c-2.8.233-5.255 1.7-6.817 3.857h-8.483v-5.744h15.63zM12.82 35.103c-.682 0-1.237-.555-1.237-1.237s.555-1.236 1.237-1.236 1.236.554 1.236 1.236c0 .682-.554 1.237-1.236 1.237zM28.68 18.266l1.536-8.794c.024-.136.2-.284.337-.284h4.448V7.333h-4.448c-1.035 0-1.986.8-2.164 1.82l-.933 5.339H9.648v14.015h2.28v2.399c-.977.294-1.752 1.06-2.059 2.033H6.667v1.855h3.202c.395 1.252 1.568 2.164 2.95 2.164 1.704 0 3.091-1.387 3.091-3.092 0-1.367-.893-2.53-2.126-2.936v-2.423h4.469c.467 4.737 4.474 8.45 9.332 8.45 5.171 0 9.378-4.206 9.378-9.377 0-4.801-3.626-8.77-8.282-9.314z"/>
                <circle cx="27.5" cy="27.5" r="5.5" fill="#40BAD5" opacity=".3"/>
            </g>
        </g>
    </g>
</svg>
